PathFileType	4	(X/Y/Z)	/mnt/D494C4CF94C4B4F0/Trampoline_predictions/poses3d/1_partie_0429_002.trc
DataRate	CameraRate	NumFrames	NumMarkers	Units	OrigDataRate	OrigDataStartFrame	OrigNumFrames
120	120	7	17	m	120	945	1261
Frame#	Time	Nose			L Eye			R Eye			L Ear			R Ear			L Shoulder			R Shoulder			L Elbow			R Elbow			L Wrist			R Wrist			L Hip			R Hip			L Knee			R Knee			L Ankle			R Ankle			
		X1	Y1	Z1	X2	Y2	Z2	X3	Y3	Z3	X4	Y4	Z4	X5	Y5	Z5	X6	Y6	Z6	X7	Y7	Z7	X8	Y8	Z8	X9	Y9	Z9	X10	Y10	Z10	X11	Y11	Z11	X12	Y12	Z12	X13	Y13	Z13	X14	Y14	Z14	X15	Y15	Z15	X16	Y16	Z16	X17	Y17	Z17	
945	7.875	0.2625563732842211	0.05746938620383951	2.9876540911794267	0.2400165619361741	0.034711362613590285	3.0191061108679484	0.23833915268724434	0.047330017657919346	3.020514197632184	0.27074182802554375	0.0069866581548471	3.109278576621574	0.260980181136791	0.051023904837673585	3.113996602323617	0.44630179808502585	-0.03550729851494583	3.1462842444093413	0.3943943097693557	0.1636446787530038	3.2187458708170524	0.7242312005321451	-0.0712201603398804	3.1425781706710763	0.5496041478192629	0.4084000680220067	3.2613112112839473	0.985251446966468	-0.10091392966767067	3.148673437867701	0.6720750098126058	0.6252982948801713	3.335690848553202	0.8115322652253723	-0.001456148345963779	3.3618195346980855	0.7874782045292921	0.17060704364473192	3.4585157427576485	1.199932057748869	0.08063308099970297	3.419846810080259	1.1913176909821694	0.15169368924635282	3.475427947939146	1.576021848411942	0.0956484645011681	3.4660538686335256	1.5519581132587983	0.2768505379167893	3.576556118172035
946	7.883333333333334	0.255529454592001	0.056842794656849945	2.9618170014787752	0.23704910556180325	0.03551272313107048	3.0004023395027493	0.23881893079198072	0.04875100636641309	3.0010896803005425	0.2596541262873347	0.019859195007293436	3.0891331084243854	0.2664408005835794	0.04936237819025228	3.090042029546063	0.4553401650676396	-0.061748346907253206	3.117121365062127	0.3971371003589718	0.17783115270643485	3.1903100175815147	0.713073829181717	-0.06658905405996388	3.0994631812650044	0.5774223325750037	0.42886058970269547	3.212830700662213	0.9779895961424654	-0.0853774507440623	3.0843312908013187	0.6177565093116232	0.759463361594421	3.3091931773927428	0.8134335073181576	0.009503755950569941	3.32411589989829	0.799728731589776	0.18248028921090279	3.4288829732260018	1.2022979555659048	0.06983820513110477	3.3450378277626327	1.1969435585810935	0.14486085480695998	3.405008717014297	1.5746086035526896	0.1080077819230615	3.3706964309934504	1.5568699421048824	0.3218862993501301	3.484429495655488
947	7.891666666666667	0.24901224441799263	0.054509304688177156	2.935991505214872	0.22755424165418836	0.031072668026529863	2.9707449928612597	0.22437361231743877	0.048536269825199665	2.9723650760682188	0.2545764181866881	0.013109953565622726	3.063945351693862	0.25764921475638247	0.052886922630778384	3.068756835822414	0.4455549817203044	-0.04063960264547794	3.0751031082654974	0.39760955866786046	0.17281758136182745	3.1659988664010243	0.7201373046177466	-0.0750621416940125	3.0530769076068998	0.5579822953965818	0.41681432641126437	3.1701849129211754	0.9663094371217457	-0.1020570842414258	3.0169691121126943	0.7036663575552676	0.5980549038709423	3.1929672844301584	0.8221007630743767	0.011706387738277046	3.2863215200291496	0.8087044442611936	0.1641295638103139	3.3762587604817744	1.2157626298736195	0.05561760558812705	3.2694791064565094	1.2074589650682892	0.1822371434494283	3.3495293480429242	1.5809496199943862	0.11079516900122034	3.2660552268777066	1.5632546064670716	0.3309314452424264	3.3817738659811054
948	7.9	0.24920234761812474	0.05492389952244212	2.9226306594833305	0.22994259047655943	0.02512795960812988	2.9538330508889072	0.22605446647551106	0.05043243064777921	2.959509816088573	0.25841842948140226	-0.005170997739781473	3.0410882152304795	0.25182589953484924	0.05854350369694548	3.0597049864591894	0.44498253282481665	-0.03527700180011644	3.0470157168300487	0.40013139066005066	0.19157853881917117	3.136294640272394	0.7185542778244121	-0.0688821326563258	2.9981478132575847	0.6693835036135866	0.39061541840423697	3.1053636780971456	0.9651278784405279	-0.11972022782165172	2.9469705941708173	0.7795278106009129	0.4613224841888357	3.07894052311454	0.8217606318116295	0.009248007825498655	3.2473160546194997	0.8110650036327091	0.16561161547955805	3.341378057249307	1.2065143321298717	0.048430902471237144	3.200459728521553	1.2047839662155762	0.17928316252774484	3.2762357258552526	1.581269572666859	0.10233411560666088	3.171658188014577	1.57426875266903	0.33664881896893745	3.2753478985297053
949	7.908333333333333	0.24929528426510947	0.05171679451131126	2.9026721351845692	0.2335756252388386	0.020787828954864498	2.9406883947013096	0.23430231356239334	0.04475729534374122	2.9464370886098092	0.25624510252690424	-0.0031179481010649565	3.020308635350096	0.26027345445342803	0.0601384817694182	3.0366209797578096	0.4379418072044833	-0.03895062321607075	3.0202049747060453	0.40319147036183567	0.1781346201664223	3.1059826618207884	0.7076164460553207	-0.0683729736106385	2.947417850687984	0.591848295330927	0.38986567369818803	3.054027527761069	0.9516109748646724	-0.12628667695482665	2.877953447283594	0.8210171446111708	0.39788704047617995	2.9830475074748675	0.8418282410207659	0.0006421710875094823	3.208109016442006	0.8318626462305213	0.14857183338684546	3.3002594404729533	1.2259799776412195	0.06241107789277722	3.135108310176117	1.2304817342727843	0.19683771592067834	3.2089324028004103	1.5809342647265539	0.1026257553764921	3.083200497395718	1.5807845862964074	0.3366861853371626	3.184773854699461
950	7.916666666666667	0.2426458824100573	0.06592127622861038	2.8793242022146828	0.2231474945606531	0.03781840618383277	2.9136341785201756	0.218635848808362	0.06085974939942274	2.9166648058025553	0.2597891357223805	0.002749512949606501	2.9994596625852448	0.24526646970080665	0.07269286226794267	3.014934380306884	0.441955001262073	-0.04790574413036292	2.9949901670836727	0.3991577778420959	0.19246517748082417	3.0794630085517896	0.7089992765452203	-0.08137518643437765	2.9086695964536804	0.6195557542138556	0.17626350074252634	2.960557128026299	0.9443217879373235	-0.13885736011283312	2.821275454104664	0.8352988907749632	0.388462354523299	2.9022246666850955	0.8391858715032856	0.02739119833339345	3.1697886074115322	0.8442303042735002	0.16802223552447365	3.2474477150494323	1.2227852862638624	0.06898626919299256	3.0523829683183723	1.2345520548035367	0.2155953428056988	3.1387769265132697	1.5643162420188463	0.12099728440258134	2.9681132405501662	1.574169438187927	0.34103746691647396	3.068957614689846
951	7.925	0.2345063524696981	0.07676477691661253	2.8676152852416714	0.22039074763900612	0.045779551038811775	2.9010166084693165	0.21239843299935185	0.08208391800535733	2.912161313948017	0.25649119056620406	0.004486111354162214	2.9766268948058108	0.24188187961412738	0.08727704983449695	3.008421219051986	0.44256981672832035	-0.05466576857128752	2.9672188528695607	0.4084237550086165	0.2112815177384444	3.0538597739574036	0.7044119339592478	-0.09143955259715687	2.8686579918309723	0.7122460577293388	-0.036761541236684715	2.8664900228919996	0.9288942775374898	-0.16057333664396614	2.757017571171162	0.8295375802812118	0.41376220812051645	2.833408429919177	0.8454598762507632	0.012221917597378102	3.127848923501865	0.8491446123514304	0.1727993376065439	3.1999980727541355	1.2107323703394761	0.07280837953668612	2.980793906550096	1.2296157230115616	0.254280741190073	3.057886947643319	1.5473795768595935	0.10765239158278682	2.8778731094002534	1.567154342589761	0.3563420644467269	2.9690285457703913
